<mxfile host="app.diagrams.net" agent="Mozilla/5.0 (Macintosh; Intel Mac OS X 10_15_7) AppleWebKit/537.36 (KHTML, like Gecko) Chrome/134.0.0.0 Safari/537.36" version="26.2.8">
  <diagram name="Page-1" id="yadtny4jEoWOzTSWfsVv">
    <mxGraphModel grid="1" page="1" gridSize="10" guides="1" tooltips="1" connect="1" arrows="1" fold="1" pageScale="1" pageWidth="827" pageHeight="1169" math="0" shadow="0">
      <root>
        <mxCell id="0" />
        <mxCell id="1" parent="0" />
        <mxCell id="w4Dr3OeFcrMAhnn8j9h_-9" value="Clinical Process" style="rounded=1;whiteSpace=wrap;html=1;verticalAlign=top;" vertex="1" parent="1">
          <mxGeometry x="340" y="150" width="150" height="170" as="geometry" />
        </mxCell>
        <mxCell id="w4Dr3OeFcrMAhnn8j9h_-3" value="" style="edgeStyle=orthogonalEdgeStyle;rounded=0;orthogonalLoop=1;jettySize=auto;html=1;exitX=1;exitY=0.5;exitDx=0;exitDy=0;" edge="1" parent="1" source="w4Dr3OeFcrMAhnn8j9h_-9" target="w4Dr3OeFcrMAhnn8j9h_-2">
          <mxGeometry relative="1" as="geometry" />
        </mxCell>
        <mxCell id="w4Dr3OeFcrMAhnn8j9h_-1" value="Remote Patient Monitoring" style="rounded=1;whiteSpace=wrap;html=1;fillColor=#dae8fc;strokeColor=#6c8ebf;" vertex="1" parent="1">
          <mxGeometry x="354" y="250" width="120" height="60" as="geometry" />
        </mxCell>
        <mxCell id="w4Dr3OeFcrMAhnn8j9h_-2" value="eReport&lt;br&gt;(Discharge)" style="whiteSpace=wrap;html=1;fillColor=#dae8fc;strokeColor=#6c8ebf;rounded=1;" vertex="1" parent="1">
          <mxGeometry x="554" y="205" width="120" height="60" as="geometry" />
        </mxCell>
        <mxCell id="w4Dr3OeFcrMAhnn8j9h_-5" style="edgeStyle=orthogonalEdgeStyle;rounded=0;orthogonalLoop=1;jettySize=auto;html=1;entryX=0;entryY=0.5;entryDx=0;entryDy=0;" edge="1" parent="1" source="w4Dr3OeFcrMAhnn8j9h_-4" target="w4Dr3OeFcrMAhnn8j9h_-9">
          <mxGeometry relative="1" as="geometry" />
        </mxCell>
        <mxCell id="w4Dr3OeFcrMAhnn8j9h_-4" value="eReferral" style="whiteSpace=wrap;html=1;fillColor=#dae8fc;strokeColor=#6c8ebf;rounded=1;" vertex="1" parent="1">
          <mxGeometry x="149" y="205" width="120" height="60" as="geometry" />
        </mxCell>
        <mxCell id="w4Dr3OeFcrMAhnn8j9h_-6" value="Health Information Exchange" style="rounded=1;whiteSpace=wrap;html=1;fillColor=#fff2cc;strokeColor=#d6b656;" vertex="1" parent="1">
          <mxGeometry x="149" y="330" width="530" height="30" as="geometry" />
        </mxCell>
        <mxCell id="w4Dr3OeFcrMAhnn8j9h_-7" value="Clinical Data Repositories" style="rounded=1;whiteSpace=wrap;html=1;fillColor=#ffe6cc;strokeColor=#d79b00;" vertex="1" parent="1">
          <mxGeometry x="354" y="370" width="120" height="60" as="geometry" />
        </mxCell>
        <mxCell id="w4Dr3OeFcrMAhnn8j9h_-8" value="Care Provision" style="rounded=1;whiteSpace=wrap;html=1;fillColor=#dae8fc;strokeColor=#6c8ebf;" vertex="1" parent="1">
          <mxGeometry x="354" y="180" width="120" height="60" as="geometry" />
        </mxCell>
        <mxCell id="w4Dr3OeFcrMAhnn8j9h_-10" value="Health Document Sharing" style="rounded=1;whiteSpace=wrap;html=1;fillColor=#ffe6cc;strokeColor=#d79b00;" vertex="1" parent="1">
          <mxGeometry x="355" y="440" width="120" height="60" as="geometry" />
        </mxCell>
        <mxCell id="w4Dr3OeFcrMAhnn8j9h_-11" value="Care Service Directory" style="rounded=1;whiteSpace=wrap;html=1;fillColor=#ffe6cc;strokeColor=#d79b00;" vertex="1" parent="1">
          <mxGeometry x="220" y="370" width="120" height="60" as="geometry" />
        </mxCell>
        <mxCell id="FGTD7Mu-JeyCOnGH2pwf-1" value="Scheduling&lt;br&gt;(Appointment Booking)" style="rounded=1;whiteSpace=wrap;html=1;fillColor=#dae8fc;strokeColor=#6c8ebf;" vertex="1" parent="1">
          <mxGeometry x="355" y="60" width="120" height="60" as="geometry" />
        </mxCell>
      </root>
    </mxGraphModel>
  </diagram>
</mxfile>
